<svg width="316" height="316" xmlns="http://www.w3.org/2000/svg" xmlns:xlink="http://www.w3.org/1999/xlink" xml:space="preserve" overflow="hidden"><defs><clipPath id="clip0"><rect x="412" y="132" width="316" height="316"/></clipPath><clipPath id="clip1"><rect x="412" y="133" width="315" height="315"/></clipPath><clipPath id="clip2"><rect x="412" y="133" width="315" height="315"/></clipPath><clipPath id="clip3"><rect x="412" y="133" width="315" height="315"/></clipPath></defs><g clip-path="url(#clip0)" transform="translate(-412 -132)"><g clip-path="url(#clip1)"><g clip-path="url(#clip2)"><g clip-path="url(#clip3)"><path d="M513.719 234.719 477.625 234.719 477.625 211.75 513.719 211.75 513.719 234.719ZM562.938 211.75 562.938 234.719 526.844 234.719 526.844 211.75 562.938 211.75ZM612.156 211.75 612.156 234.719 576.062 234.719 576.062 211.75 612.156 211.75ZM661.375 211.75 661.375 234.719 625.281 234.719 625.281 211.75 661.375 211.75ZM661.375 270.812 625.281 270.812 625.281 247.844 661.375 247.844 661.375 270.812ZM661.375 298.703 625.281 301.984 625.281 283.938 661.375 283.938 661.375 298.703ZM513.719 283.938 513.719 311.828 477.625 315.109 477.625 283.938 513.719 283.938ZM513.719 270.812 477.625 270.812 477.625 247.844 513.719 247.844 513.719 270.812ZM562.938 270.812 526.844 270.812 526.844 247.844 562.938 247.844 562.938 270.812ZM576.062 270.812 576.062 247.844 612.156 247.844 612.156 270.812 576.062 270.812ZM562.938 307.562 526.844 310.844 526.844 283.938 562.938 283.938 562.938 307.562ZM576.062 283.938 612.156 283.938 612.156 302.969 576.062 306.25 576.062 283.938ZM681.062 316.75 681.062 192.062 477.625 192.062 477.625 188.781C477.625 172.375 464.5 159.25 448.094 159.25 442.516 159.25 438.25 163.516 438.25 169.094 438.25 174.672 442.516 178.938 448.094 178.938 453.672 178.938 457.938 183.203 457.938 188.781L457.938 352.844C457.938 369.25 471.062 382.375 487.469 382.375L497.312 382.375 641.688 382.375 671.219 382.375C676.797 382.375 681.062 378.109 681.062 372.531 681.062 366.953 676.797 362.688 671.219 362.688L487.469 362.688C481.891 362.688 477.625 358.422 477.625 352.844L477.625 334.797 681.062 316.75Z" fill="#FFFFFF" fill-rule="nonzero" fill-opacity="1"/><path d="M517 402.062C517 412.936 508.186 421.75 497.312 421.75 486.439 421.75 477.625 412.936 477.625 402.062 477.625 391.189 486.439 382.375 497.312 382.375 508.186 382.375 517 391.189 517 402.062Z" fill="#FFFFFF" fill-rule="nonzero" fill-opacity="1"/><path d="M661.375 402.062C661.375 412.936 652.561 421.75 641.688 421.75 630.814 421.75 622 412.936 622 402.062 622 391.189 630.814 382.375 641.688 382.375 652.561 382.375 661.375 391.189 661.375 402.062Z" fill="#FFFFFF" fill-rule="nonzero" fill-opacity="1"/></g></g></g></g></svg>